# xmcd CD database file
#
# Track frame offsets:
#	150
#	23984
#	39564
#	56511
#	86193
#	110931
#	155128
#	172557
#	203889
#	227189
#
# Disc length: 3637 seconds
#
# Revision: 0
# Processed by: cddbd v1.5PL3 Copyright (c) Steve Scherf et al.
# Submitted via: CDex 1.40Release
#
DISCID=850e330a
DTITLE=Deanna Bogart - Deanna Bogart Live
DYEAR=2000
DGENRE=Blues
TTITLE0=o.k. i'll play the blues
TTITLE1=wont be long (503)
TTITLE2=peephole
TTITLE3=honeybee
TTITLE4=love and attention
TTITLE5=checks and loveletters
TTITLE6=but you know
TTITLE7=if i get old
TTITLE8=another lonely night
TTITLE9=they said it wouldnt rain
EXTD=YEAR: 2000 ID3G: 0
EXTT0=
EXTT1=
EXTT2=
EXTT3=
EXTT4=
EXTT5=
EXTT6=
EXTT7=
EXTT8=
EXTT9=
PLAYORDER=
